<?xml version="1.0" standalone="no"?>
<!DOCTYPE svg PUBLIC "-//W3C//DTD SVG 20010904//EN"
 "http://www.w3.org/TR/2001/REC-SVG-20010904/DTD/svg10.dtd">
<svg version="1.0" xmlns="http://www.w3.org/2000/svg"
 width="64.000000pt" height="64.000000pt" viewBox="0 0 64.000000 64.000000"
 preserveAspectRatio="xMidYMid meet">

<g transform="translate(0.000000,64.000000) scale(0.100000,-0.100000)"
fill="#000000" stroke="none">
<path d="M20 621 c0 -6 11 -11 25 -11 30 0 28 6 54 -205 19 -158 19 -160 0
-181 -10 -11 -19 -27 -19 -36 0 -19 31 -48 52 -48 23 0 51 37 45 60 -5 19 -1
20 125 20 88 0 127 -3 123 -11 -13 -20 5 -59 31 -65 48 -12 83 46 48 80 -13
13 -45 16 -189 16 -144 0 -174 2 -179 15 -5 13 18 15 164 15 l168 0 11 33 c8
27 31 210 31 252 0 12 -35 15 -207 17 l-207 3 -6 25 c-4 19 -13 26 -38 28 -18
2 -32 -1 -32 -7z m470 -96 l0 -25 -195 0 -195 0 0 25 0 25 195 0 195 0 0 -25z
m-10 -70 l0 -25 -185 0 -185 0 0 25 0 25 185 0 185 0 0 -25z m-10 -70 l0 -25
-175 0 -175 0 0 25 0 25 175 0 175 0 0 -25z m-10 -70 l0 -25 -165 0 -165 0 0
25 0 25 165 0 165 0 0 -25z m-305 -125 c0 -18 -6 -26 -23 -28 -13 -2 -25 3
-28 12 -10 26 4 48 28 44 17 -2 23 -10 23 -28z m339 7 c8 -14 8 -20 -4 -27
-22 -14 -40 -12 -46 5 -16 41 27 60 50 22z"/>
</g>
</svg>
